<?xml version="1.0" standalone="no"?>
<svg version="1.0" xmlns="http://www.w3.org/2000/svg"
 width="300.000000pt" height="224.000000pt" viewBox="0 0 300.000000 224.000000"
 preserveAspectRatio="xMidYMid meet">
<g transform="translate(0.000000,224.000000) scale(0.100000,-0.100000)"
fill="#000000" stroke="none">
<path d="M1790 2153 c-46 -4 -118 -22 -155 -38 -357 -152 -536 -229 -560 -240
-16 -8 -64 -29 -105 -46 -41 -17 -88 -37 -105 -44 -16 -8 -111 -48 -210 -91
-99 -42 -208 -89 -243 -105 -35 -16 -66 -29 -68 -29 -3 0 -24 -8 -47 -19 -23
-10 -82 -36 -131 -57 -95 -40 -126 -72 -126 -128 l0 -30 27 26 c16 15 41 32
56 37 41 16 1166 15 1218 0 65 -20 91 -59 159 -239 34 -91 67 -178 75 -195 7
-16 25 -64 41 -105 33 -90 49 -110 83 -110 28 0 36 7 271 234 75 72 172 164
215 205 204 189 278 267 301 316 13 28 24 59 24 71 0 11 9 48 21 81 17 51 37
79 115 164 103 111 121 149 109 227 -8 55 -45 96 -101 111 -36 10 -771 14
-864 4z"/>
<path d="M2638 1762 c-57 -59 -85 -111 -97 -185 -16 -88 -54 -148 -160 -249
-53 -50 -152 -145 -221 -212 -216 -209 -412 -391 -429 -398 -9 -4 -28 -7 -43
-7 -30 -1 -32 -7 -19 -61 4 -20 4 -46 0 -58 -5 -12 -6 -22 -3 -22 5 0 96 81
239 211 27 25 73 66 100 90 28 24 77 69 110 100 33 31 83 76 110 100 28 24 79
71 115 104 36 33 88 80 115 104 155 135 235 217 249 253 20 47 20 134 1 211
-7 33 -15 61 -17 63 -3 2 -25 -18 -50 -44z"/>
<path d="M113 1350 c-55 -33 -56 -46 -12 -156 22 -54 44 -108 49 -119 5 -11
32 -78 60 -150 28 -71 58 -136 67 -142 29 -22 71 -14 128 23 63 42 61 30 40
209 -26 216 -32 299 -24 328 l8 27 -142 0 c-123 0 -146 -3 -174 -20z"/>
<path d="M459 1349 c-16 -16 -19 -29 -15 -57 3 -20 10 -91 16 -157 6 -66 18
-168 26 -227 8 -59 14 -124 14 -146 0 -21 5 -64 11 -96 21 -101 -13 -95 578
-108 433 -10 512 -10 526 2 58 48 38 125 -161 631 -19 48 -34 90 -34 95 -1 19
-40 55 -74 69 -29 12 -107 15 -451 15 -407 0 -415 0 -436 -21z m848 -114 c12
-8 26 -30 32 -48 14 -43 51 -328 51 -393 0 -81 -12 -87 -172 -85 -235 2 -432
12 -461 23 -39 15 -55 53 -67 155 -6 48 -17 138 -24 198 -14 110 -10 138 18
157 6 4 144 8 306 8 247 0 299 -2 317 -15z"/>
<path d="M2856 958 c-60 -16 -120 -83 -144 -160 -11 -34 -23 -87 -27 -115 l-7
-53 -384 0 -384 0 0 55 c0 68 4 70 -129 -53 l-101 -94 0 -93 c0 -117 8 -125
117 -125 60 0 77 4 93 20 11 11 20 27 20 35 0 13 49 15 384 15 l384 0 6 -47
c15 -100 38 -162 78 -208 46 -52 76 -70 136 -79 l42 -6 0 460 0 460 -22 -1
c-13 -1 -41 -6 -62 -11z"/>
</g>
</svg>
